# xmcd CD database file
#
# Track frame offsets:
#	150
#	17337
#	31757
#
# Disc length: 650 seconds
#
# Revision: 0
# Processed by: cddbd v1.5.1PL0 Copyright (c) Steve Scherf et al.
# Submitted via: CDex 1.51
#
DISCID=11028803
DTITLE=コスモス - モスラの歌
DYEAR=1992
DGENRE=JPop
TTITLE0=モスラの歌
TTITLE1=聖なる泉
TTITLE2=モスラの歌(オリジナル・カラオケ）
EXTD=YEAR: 1992
EXTT0=
EXTT1=
EXTT2=
PLAYORDER=
